# xmcd
#
# Track frame offsets:
#	150
#	16202
#	43841
#	57593
#	62732
#	70312
#	80093
#	98520
#	107720
#	115522
#	128695
#	146123
#	162075
#	173703
#	183052
#	188335
# Disc length: 2559 seconds
# Revision: 1
# Processed by: cddbd v1.5.2PL0 Copyright (c) Steve Scherf et al.
#
# Submitted via: libkcddb 0.21
#
DISCID=cf09fd10
DTITLE=Kid Ory - Mahagony Hall Stomp - CD 1
DYEAR=1900
DGENRE=Jazz
TTITLE0=High Society
TTITLE1=Savoy Blues
TTITLE2=Clarinet Marmalade
TTITLE3=Oh! Didnt he Ramble
TTITLE4=Blues
TTITLE5=Muskrat Ramble
TTITLE6=Blues Habanera
TTITLE7=Creole Song
TTITLE8=Lonesome Road
TTITLE9=High Society
TTITLE10=Maple Leaf Rag
TTITLE11=Improvisation in B
TTITLE12=Muskreat Ramble
TTITLE13=Bye n Bye
TTITLE14=Swing Low, Sweet Chariot
TTITLE15=Closing Dialogue
EXTD=
EXTT0=
EXTT1=
EXTT2=
EXTT3=
EXTT4=
EXTT5=
EXTT6=
EXTT7=
EXTT8=
EXTT9=
EXTT10=
EXTT11=
EXTT12=
EXTT13=
EXTT14=
EXTT15=
PLAYORDER=
